# xmcd
#
# Track frame offsets: 
#        150
#        3067
#        14120
#        31935
#        36798
#        43338
#        58730
#        70488
#        81338
#        92400
#        106334
#        119621
#        134351
#
# Disc length: 1933 seconds
#
# Revision: 0
# Processed by: cddbd v1.5.1PL2 Copyright (c) Steve Scherf et al.
# Submitted via: ExactAudioCopy v0.95b3
#
DISCID=b0078b0d
DTITLE=Many Strings - Trapper Jo
DYEAR=2005
DGENRE=Ballad
TTITLE0=Flute
TTITLE1=Make the Mountain Mine
TTITLE2=Trapper Jo
TTITLE3=The Owl Song
TTITLE4=In the Moon
TTITLE5=Medicine Spirit
TTITLE6=Quit Kicking my Dog
TTITLE7=Fitzpatricks Ride
TTITLE8=The Prairie Yodel
TTITLE9=Rendezvous
TTITLE10=Reflection
TTITLE11=Shoshone Sky
TTITLE12=Winter Quarters
EXTD=
EXTT0=
EXTT1=
EXTT2=
EXTT3=
EXTT4=
EXTT5=
EXTT6=
EXTT7=
EXTT8=
EXTT9=
EXTT10=
EXTT11=
EXTT12=
PLAYORDER=
